<svg width="32" height="32" viewBox="0 0 32 32" fill="none" xmlns="http://www.w3.org/2000/svg">
<path d="M28.6507 22.2L22.2107 18.49C21.9811 18.3596 21.7092 18.3254 21.4544 18.3947C21.1997 18.464 20.9826 18.6313 20.8507 18.86L17.1407 25.29C17.0095 25.5184 16.9737 25.7894 17.0411 26.044C17.1085 26.2987 17.2737 26.5164 17.5007 26.65L23.9307 30.37C25.0112 30.9502 26.2751 31.087 27.4547 30.7515C28.6343 30.416 29.637 29.6346 30.2505 28.5727C30.864 27.5108 31.0401 26.2518 30.7415 25.0623C30.4429 23.8728 29.693 22.8463 28.6507 22.2ZM19.3707 25.42L22.0807 20.72L23.5607 21.58L20.8507 26.28L19.3707 25.42ZM28.6407 27.64C28.4644 27.951 28.2281 28.2238 27.9456 28.4427C27.663 28.6616 27.3398 28.8222 26.9947 28.9153C26.6495 29.0083 26.2894 29.0318 25.9351 28.9846C25.5808 28.9374 25.2394 28.8202 24.9307 28.64L22.5807 27.29L25.3007 22.59L27.6507 23.95C28.2696 24.3097 28.7211 24.8995 28.9065 25.5909C29.092 26.2822 28.9965 27.0189 28.6407 27.64Z" fill="white"/>
<path d="M11.151 18.86C11.019 18.6313 10.802 18.464 10.5472 18.3947C10.2924 18.3254 10.0206 18.3596 9.79096 18.49L3.35096 22.21C2.4514 22.7288 1.74853 23.5304 1.35166 24.49C0.954801 25.4497 0.886204 26.5135 1.15654 27.5162C1.42688 28.5188 2.021 29.404 2.84648 30.0341C3.67196 30.6641 4.68252 31.0037 5.72096 31C6.54626 31.0018 7.35724 30.7844 8.07096 30.37L14.501 26.66C14.729 26.5256 14.8944 26.3062 14.961 26.05C14.9951 25.923 15.0038 25.7905 14.9867 25.6601C14.9695 25.5296 14.9268 25.4039 14.861 25.29L11.151 18.86ZM7.07096 28.64C6.60482 28.9132 6.0679 29.0413 5.52864 29.0081C4.98938 28.9749 4.47223 28.7819 4.04312 28.4536C3.61401 28.1253 3.29238 27.6767 3.11924 27.1649C2.9461 26.6531 2.92929 26.1014 3.07096 25.58C3.25963 24.8893 3.71214 24.3003 4.33096 23.94L6.70096 22.58L9.42096 27.28L7.07096 28.64ZM11.151 26.28L8.44096 21.58L9.92096 20.73L12.631 25.42L11.151 26.28Z" fill="white"/>
<path d="M17.7604 18.0001H18.2204C19.5624 17.9989 20.8862 17.6905 22.0905 17.0985C23.2948 16.5065 24.3476 15.6466 25.1682 14.5847C25.9887 13.5228 26.5552 12.2872 26.8243 10.9725C27.0933 9.65778 27.0578 8.29893 26.7204 7.00008C26.6759 6.82658 26.5856 6.66823 26.4589 6.54158C26.3323 6.41492 26.1739 6.32461 26.0004 6.28008C24.3084 5.84349 22.5241 5.92713 20.8804 6.52008C20.0986 4.27037 18.5521 2.36639 16.5104 1.14008C16.3584 1.05231 16.1859 1.0061 16.0104 1.0061C15.8349 1.0061 15.6624 1.05231 15.5104 1.14008C13.4687 2.36639 11.9222 4.27037 11.1404 6.52008C9.49059 5.92302 7.69868 5.83936 6.0004 6.28008C5.82691 6.32461 5.66856 6.41492 5.5419 6.54158C5.41525 6.66823 5.32493 6.82658 5.2804 7.00008C4.94301 8.29893 4.90748 9.65778 5.17654 10.9725C5.44561 12.2872 6.01212 13.5228 6.83265 14.5847C7.65319 15.6466 8.70596 16.5065 9.91027 17.0985C11.1146 17.6905 12.4384 17.9989 13.7804 18.0001H14.2404C14.483 18.1979 14.7367 18.3815 15.0004 18.5501V22.0001H17.0004V18.5201C17.2633 18.3612 17.5171 18.1876 17.7604 18.0001ZM24.9104 8.12008C25.1975 9.83332 24.8161 11.5914 23.8448 13.0316C22.8734 14.4718 21.3864 15.4843 19.6904 15.8601C20.8685 14.1328 21.4992 12.0909 21.5004 10.0001C21.4956 9.49125 21.4555 8.98336 21.3804 8.48008C22.5014 8.03826 23.72 7.90363 24.9104 8.09008V8.12008ZM7.0904 8.12008C8.28081 7.93363 9.49941 8.06826 10.6204 8.51008C10.5467 9.00345 10.5066 9.50127 10.5004 10.0001C10.5076 12.0806 11.138 14.1113 12.3104 15.8301C10.6144 15.4543 9.12736 14.4418 8.15605 13.0016C7.18475 11.5614 6.8033 9.80332 7.0904 8.09008V8.12008ZM12.5004 10.0001C12.4992 8.66824 12.8161 7.35538 13.4249 6.17083C14.0337 4.98628 14.9167 3.96433 16.0004 3.19008C16.9994 3.90004 17.8303 4.82071 18.4343 5.88704C19.0384 6.95338 19.4009 8.13937 19.4963 9.36121C19.5917 10.583 19.4176 11.8109 18.9863 12.9581C18.555 14.1052 17.8771 15.1437 17.0004 16.0001V10.0001H15.0004V16.0001C14.2046 15.2172 13.5735 14.2831 13.1442 13.2527C12.7148 12.2222 12.496 11.1164 12.5004 10.0001Z" fill="white"/>
</svg>
