<svg width="32" height="32" viewBox="0 0 32 32" fill="none" xmlns="http://www.w3.org/2000/svg">
<path d="M30.629 4.62C30.5149 4.52573 30.3812 4.458 30.2376 4.42168C30.0941 4.38536 29.9443 4.38137 29.799 4.41C21.239 6.17 16.919 1.52 16.739 1.32C16.6452 1.21524 16.5304 1.13145 16.402 1.07408C16.2737 1.01671 16.1346 0.987061 15.994 0.987061C15.8534 0.987061 15.7144 1.01671 15.586 1.07408C15.4577 1.13145 15.3428 1.21524 15.249 1.32C15.249 1.37 10.809 6.18 2.24903 4.41C2.10206 4.37996 1.95021 4.38338 1.80473 4.42C1.65926 4.45662 1.52389 4.52549 1.40864 4.62153C1.2934 4.71756 1.20124 4.8383 1.13899 4.97478C1.07674 5.11127 1.046 5.26001 1.04903 5.41V13.73C1.0292 17.9066 2.51407 21.9506 5.23188 25.122C7.94969 28.2934 11.7187 30.38 15.849 31H16.149C20.2919 30.3905 24.0755 28.3057 26.8039 25.129C29.5322 21.9524 31.0219 17.8974 30.999 13.71V5.39C30.9981 5.24229 30.9644 5.09663 30.9004 4.9635C30.8364 4.83036 30.7437 4.71305 30.629 4.62ZM28.999 13.71C29.0198 17.3923 27.7195 20.9601 25.3342 23.7655C22.9489 26.571 19.6368 28.4282 15.999 29C12.3613 28.4282 9.04915 26.571 6.66387 23.7655C4.27859 20.9601 2.97829 17.3923 2.99903 13.71V6.59C9.99903 7.59 14.349 4.76 15.999 3.36C17.649 4.76 21.999 7.63 28.999 6.59V13.71Z" fill="white"/>
<path d="M25.3102 8.21002C19.6902 9.30002 16.8502 6.44002 16.7302 6.31002C16.6361 6.2113 16.5228 6.13287 16.3972 6.07956C16.2717 6.02624 16.1366 5.99918 16.0002 6.00002C15.8638 5.99918 15.7287 6.02624 15.6031 6.07956C15.4776 6.13287 15.3643 6.2113 15.2702 6.31002C15.1602 6.43002 12.3202 9.31002 6.69017 8.21002C6.54391 8.18169 6.39316 8.18639 6.24895 8.2238C6.10474 8.2612 5.97071 8.33035 5.85666 8.42619C5.7426 8.52204 5.6514 8.64216 5.58972 8.77777C5.52805 8.91338 5.49745 9.06106 5.50017 9.21002V14C5.50228 16.9098 6.54944 19.722 8.45095 21.9246C10.3525 24.1271 12.9818 25.5734 15.8602 26H16.1402C19.0185 25.5734 21.6479 24.1271 23.5494 21.9246C25.4509 19.722 26.4981 16.9098 26.5002 14V9.19002C26.5029 9.04106 26.4723 8.89338 26.4106 8.75777C26.3489 8.62216 26.2577 8.50204 26.1437 8.40619C26.0296 8.31035 25.8956 8.2412 25.7514 8.2038C25.6072 8.1664 25.4564 8.16169 25.3102 8.19002V8.21002ZM24.5002 14C24.5027 16.405 23.6486 18.7323 22.091 20.5647C20.5334 22.3972 18.3741 23.615 16.0002 24C13.6262 23.615 11.4669 22.3972 9.90933 20.5647C8.35175 18.7323 7.49767 16.405 7.50017 14V10.36C10.4856 10.8195 13.5328 10.1025 16.0002 8.36002C18.4679 10.1015 21.5148 10.8184 24.5002 10.36V14Z" fill="white"/>
<path d="M17 12H15V15H12V17H15V20H17V17H20V15H17V12Z" fill="white"/>
</svg>
