<svg width="32" height="32" viewBox="0 0 32 32" fill="none" xmlns="http://www.w3.org/2000/svg">
<path d="M24.5 13.32L21 10.52V8H22C22.2652 8 22.5196 7.89464 22.7071 7.70711C22.8946 7.51957 23 7.26522 23 7V2C23 1.73478 22.8946 1.48043 22.7071 1.29289C22.5196 1.10536 22.2652 1 22 1H10C9.73478 1 9.48043 1.10536 9.29289 1.29289C9.10536 1.48043 9 1.73478 9 2V7C9 7.26522 9.10536 7.51957 9.29289 7.70711C9.48043 7.89464 9.73478 8 10 8H11V10.52L7.5 13.32C7.03225 13.6945 6.65462 14.1693 6.39499 14.7093C6.13536 15.2493 6.00037 15.8408 6 16.44V28C6 28.7956 6.31607 29.5587 6.87868 30.1213C7.44129 30.6839 8.20435 31 9 31H23C23.7956 31 24.5587 30.6839 25.1213 30.1213C25.6839 29.5587 26 28.7956 26 28V16.44C25.9996 15.8408 25.8646 15.2493 25.605 14.7093C25.3454 14.1693 24.9677 13.6945 24.5 13.32ZM11 3H13V4.5H15V3H17V4.5H19V3H21V6H11V3ZM19 8V10H13V8H19ZM8.75 14.88L12.35 12H19.65L23.25 14.88C23.4839 15.0672 23.6727 15.3046 23.8025 15.5747C23.9323 15.8447 23.9998 16.1404 24 16.44V18H8V16.44C8.00019 16.1404 8.06768 15.8447 8.19749 15.5747C8.32731 15.3046 8.51613 15.0672 8.75 14.88ZM24 20V25H8V20H24ZM23 29H9C8.73478 29 8.48043 28.8946 8.29289 28.7071C8.10536 28.5196 8 28.2652 8 28V27H24V28C24 28.2652 23.8946 28.5196 23.7071 28.7071C23.5196 28.8946 23.2652 29 23 29Z" fill="white"/>
<path d="M22 21.5H10V23.5H22V21.5Z" fill="white"/>
</svg>
